<?xml version="1.0" standalone="no"?><!DOCTYPE svg PUBLIC "-//W3C//DTD SVG 1.1//EN" "http://www.w3.org/Graphics/SVG/1.1/DTD/svg11.dtd"><svg t="1539928529102" class="icon" style="" viewBox="0 0 1024 1024" version="1.1" xmlns="http://www.w3.org/2000/svg" p-id="3978" xmlns:xlink="http://www.w3.org/1999/xlink" width="30" height="30"><defs><style type="text/css"></style></defs><path d="M320 96A256 256 0 0 0 64 352c0 60.672 21.216 118.304 59.104 164.16L488.32 917.504a32 32 0 0 0 47.36 0l87.488-96.256a32 32 0 0 0-47.36-43.04L512 848.448l-340.544-374.24A192.32 192.32 0 0 1 128 352a192 192 0 0 1 356.576-98.912 32 32 0 0 0 54.848 0A192 192 0 0 1 896 352a32 32 0 0 0 64 0 256 256 0 0 0-448-169.344A255.616 255.616 0 0 0 320 96z" fill="red" p-id="3979"></path><path d="M617.376 642.304l113.152 113.12a32 32 0 0 0 45.248-45.248l-113.12-113.152a32 32 0 0 0-45.28 45.28z" fill="red" p-id="3980"></path><path d="M956.8 483.904L730.528 710.176a32 32 0 0 0 45.248 45.248l226.272-226.24a32 32 0 1 0-45.248-45.28z" fill="red" p-id="3981"></path></svg>
