<?xml version="1.0" standalone="no"?><!DOCTYPE svg PUBLIC "-//W3C//DTD SVG 1.1//EN" "http://www.w3.org/Graphics/SVG/1.1/DTD/svg11.dtd"><svg t="1540280080000" class="icon" style="" viewBox="0 0 1024 1024" version="1.1" xmlns="http://www.w3.org/2000/svg" p-id="4995" xmlns:xlink="http://www.w3.org/1999/xlink" width="25" height="25"><defs><style type="text/css"></style></defs><path d="M938.666667 149.333333h-209.066667V70.4C729.6 46.933333 706.133333 21.333333 682.666667 21.333333H341.333333c-23.466667 0-38.4 25.6-38.4 49.066667V149.333333H85.333333c-12.8 0-21.333333 8.533333-21.333333 21.333334s8.533333 21.333333 21.333333 21.333333h853.333334c12.8 0 21.333333-8.533333 21.333333-21.333333s-8.533333-21.333333-21.333333-21.333334zM153.6 945.066667C153.6 981.333333 177.066667 1002.666667 213.333333 1002.666667h597.333334c36.266667 0 68.266667-21.333333 68.266666-57.6V234.666667h-725.333333v710.4z m512-512c0-12.8 8.533333-21.333333 21.333333-21.333334s21.333333 8.533333 21.333334 21.333334v384c0 12.8-8.533333 21.333333-21.333334 21.333333s-21.333333-8.533333-21.333333-21.333333v-384z m-170.666667 0c0-12.8 8.533333-21.333333 21.333334-21.333334s21.333333 8.533333 21.333333 21.333334v384c0 12.8-8.533333 21.333333-21.333333 21.333333s-21.333333-8.533333-21.333334-21.333333v-384z m-170.666666 0c0-12.8 8.533333-21.333333 21.333333-21.333334s21.333333 8.533333 21.333333 21.333334v384c0 12.8-8.533333 21.333333-21.333333 21.333333s-21.333333-8.533333-21.333333-21.333333v-384z" fill="#8a8a8a" p-id="4996"></path></svg>