<?xml version="1.0" standalone="no"?><!DOCTYPE svg PUBLIC "-//W3C//DTD SVG 1.1//EN" "http://www.w3.org/Graphics/SVG/1.1/DTD/svg11.dtd"><svg t="1535765510854" class="icon" style="" viewBox="0 0 1024 1024" version="1.1" xmlns="http://www.w3.org/2000/svg" p-id="2578" xmlns:xlink="http://www.w3.org/1999/xlink" width="32" height="32"><defs><style type="text/css"></style></defs><path d="M527.520563 846.109491c-209.777152 0-379.843277-170.103194-379.843277-379.826688 0-209.812582 170.066125-379.827712 379.843277-379.827712 209.777152 0 379.843277 170.01513 379.843277 379.827712C907.363942 676.007322 737.297715 846.109491 527.520563 846.109491zM683.926016 443.939942l-44.687566 0 0-44.685735-44.686543 0 0-44.685735-44.687566 0 0-44.684712-44.686543 0 0-44.684712-89.375132 0 0 44.684712 44.687566 0 0 44.684712 44.687566 0 0 44.685735 44.686543 0 0 44.685735 44.687566 0 0 44.684712-44.687566 0 0 44.685735-44.686543 0 0 44.683688-44.687566 0 0 44.685735-44.687566 0 0 44.687782 89.375132 0 0-44.687782 44.686543 0 0-44.685735 44.687566 0 0-44.683688 44.686543 0 0-44.685735 44.687566 0L683.926016 443.939905z" p-id="2579" fill="#d81e06"></path></svg>