<?xml version="1.0" standalone="no"?><!DOCTYPE svg PUBLIC "-//W3C//DTD SVG 1.1//EN" "http://www.w3.org/Graphics/SVG/1.1/DTD/svg11.dtd"><svg t="1537850430112" class="icon" style="" viewBox="0 0 1024 1024" version="1.1" xmlns="http://www.w3.org/2000/svg" p-id="1687" xmlns:xlink="http://www.w3.org/1999/xlink" width="32" height="32"><defs><style type="text/css"></style></defs><path d="M128 93.856h85.344v887.456H128V93.856zM964.256 102.4c-12.8-8.544-25.6-8.544-38.4-4.256l-85.344 34.144c-64 25.6-136.544 12.8-192-25.6-76.8-64-183.456-81.056-281.6-42.656L281.568 98.176c-17.056 4.256-25.6 21.344-25.6 38.4v512c0 12.8 8.544 25.6 17.056 34.144 12.8 8.544 25.6 8.544 38.4 4.256l85.344-34.144c64-25.6 136.544-12.8 192 25.6 46.944 38.4 110.944 59.744 174.944 59.744 34.144 0 68.256-4.256 102.4-17.056l85.344-34.144c17.056-8.544 25.6-21.344 25.6-38.4v-512c4.256-12.8-4.256-25.6-12.8-34.144zM896 618.656L840.544 640c-68.256 25.6-140.8 12.8-196.256-29.856-51.2-34.144-115.2-55.456-174.944-55.456-34.144 0-68.256 4.256-102.4 17.056l-25.6 12.8V166.4l55.456-21.344c68.256-25.6 145.056-17.056 196.256 25.6 81.056 59.744 183.456 76.8 277.344 38.4l25.6-8.544v418.144z" p-id="1688" fill="#82529d"></path></svg>