<?xml version="1.0" standalone="no"?><!DOCTYPE svg PUBLIC "-//W3C//DTD SVG 1.1//EN" "http://www.w3.org/Graphics/SVG/1.1/DTD/svg11.dtd"><svg t="1537848657551" class="icon" style="" viewBox="0 0 1024 1024" version="1.1" xmlns="http://www.w3.org/2000/svg" p-id="2144" xmlns:xlink="http://www.w3.org/1999/xlink" width="32" height="32"><defs><style type="text/css"></style></defs><path d="M511.998465 64.37517c-247.322875 0-447.819259 200.408379-447.819259 447.623807 0 247.216451 200.49536 447.625854 447.819259 447.625854 247.323898 0 447.820282-200.409402 447.820282-447.625854C959.818747 264.783549 759.322363 64.37517 511.998465 64.37517L511.998465 64.37517zM768.856507 395.891586 479.228107 685.394119l-0.00614 0.00921c-13.355169 13.351076-33.714869 15.433504-49.256844 6.257517-2.87856-1.702782-5.590322-3.790326-8.063653-6.257517-0.004093-0.004093-0.004093-0.004093-0.004093-0.004093L255.143493 518.718005c-15.827477-15.821337-15.827477-41.4746 0-57.300031 15.827477-15.821337 41.48995-15.821337 57.319473 0l138.102335 138.039913 260.97071-260.863263c15.833617-15.820314 41.498136-15.820314 57.325613 0C784.685008 354.416985 784.685008 380.070248 768.856507 395.891586L768.856507 395.891586zM768.856507 395.891586" p-id="2145" fill="#82529d"></path></svg>