<?xml version="1.0" standalone="no"?><!DOCTYPE svg PUBLIC "-//W3C//DTD SVG 1.1//EN" "http://www.w3.org/Graphics/SVG/1.1/DTD/svg11.dtd"><svg t="1535713326410" class="icon" style="" viewBox="0 0 1644 1024" version="1.1" xmlns="http://www.w3.org/2000/svg" p-id="5057" xmlns:xlink="http://www.w3.org/1999/xlink" width="57.0625" height="30"><defs><style type="text/css"></style></defs><path d="M840.908813 1.313668a104.217978 104.217978 0 0 0-50.675992 5.341171c-62.270242 48.98245-123.889122 47.94027-182.381462 0A104.217978 104.217978 0 0 0 563.688991 0.271488a100.179532 100.179532 0 0 0-65.136237 33.870843c-75.818579 82.983565 7.034714 171.438574 85.719287 171.438574 0 0 29.571851 29.832396 46.507273 47.028363a39.081742 39.081742 0 0 0 28.138855 11.724523 37.779017 37.779017 0 0 1 75.558034 0 46.89809 46.89809 0 0 0 32.698391-13.027248c17.847329-17.456511 47.028363-45.595366 47.549452-45.595365 78.163484 0 156.326968-86.240377 87.673375-168.312035A99.658442 99.658442 0 0 0 840.908813 1.313668zM578.018963 143.571208A42.989916 42.989916 0 1 1 612.280623 109.309548 43.120189 43.120189 0 0 1 578.018963 143.571208z m258.460586 0a42.989916 42.989916 0 1 1 33.740571-34.26166A42.989916 42.989916 0 0 1 836.479549 143.571208z" fill="#cc0000" p-id="5058"></path><path d="M668.037242 245.704827l56.92907 0 0 371.406821-56.92907 0 0-371.406821Z" fill="#cc0000" p-id="5059"></path><path d="M1625.018828 475.635742a213.646856 213.646856 0 0 0-84.156017-94.577816 380.004804 380.004804 0 0 0-118.287406-45.725638 675.071955 675.071955 0 0 0-125.322119-15.111606 398.633767 398.633767 0 0 0-64.354601 3.387084 151.376614 151.376614 0 0 0-65.136237 23.449045 81.159751 81.159751 0 0 0-26.054494 29.702124 91.190731 91.190731 0 0 0-8.337439 37.518472A184.205277 184.205277 0 0 0 1146.397763 482.279638a720.146231 720.146231 0 0 0 57.319888 113.727869c42.208281 71.519588 89.627461 139.782364 121.674489 211.432224a251.165328 251.165328 0 0 1 17.586784 52.630079 73.343402 73.343402 0 0 1-2.214632 43.641278 44.162368 44.162368 0 0 1-11.724522 14.460245l-9.509891 7.555803-10.55207 6.383351a175.086204 175.086204 0 0 1-48.98245 16.544604 361.37584 361.37584 0 0 1-112.815962-1.823814c-10.161253-1.432997-20.452778-3.256812-30.614031-5.341172A180.297103 180.297103 0 0 0 1133.370515 873.097057a292.852519 292.852519 0 0 0-31.395666-147.207894 384.56434 384.56434 0 0 0-360.463933-214.819308c-172.350482 6.253079-316.692382 99.007079-316.692381 99.007079C141.345633 764.449815 63.833512 871.14297 42.729371 916.738336a52.108989 52.108989 0 0 0 2.475177 50.154902c33.610298 52.108989 124.540484 55.886891 124.540484 55.886891H937.961806a219.378845 219.378845 0 0 0 124.670756-23.709591 690.444107 690.444107 0 0 0 75.688307 13.027248 418.695728 418.695728 0 0 0 133.399013-3.256812 233.057454 233.057454 0 0 0 66.699506-26.054495l15.502424-10.291525 14.1997-12.11534a99.007079 99.007079 0 0 0 25.793949-34.131388 128.057841 128.057841 0 0 0 3.64763-78.163484 312.653935 312.653935 0 0 0-23.318773-63.442694c-39.081742-78.163484-88.455009-143.29972-132.22656-212.604676a691.356014 691.356014 0 0 1-57.840978-104.217978 147.207895 147.207895 0 0 1-13.027248-52.10899 45.595366 45.595366 0 0 1 17.977602-39.081742 115.291139 115.291139 0 0 1 49.633812-19.150053 348.21832 348.21832 0 0 1 58.752885-5.210899 690.444107 690.444107 0 0 1 120.502038 9.119073 356.686031 356.686031 0 0 1 113.206779 37.518472 197.883887 197.883887 0 0 1 81.811113 83.634928 240.74353 240.74353 0 0 1 22.276593 117.245226 377.008537 377.008537 0 0 1-26.054495 119.850675 383.261616 383.261616 0 0 0 33.219481-120.11122 242.437072 242.437072 0 0 0-17.456512-123.889122z" fill="#cc0000" p-id="5060"></path><path d="M1608.865042 459.351683A214.819308 214.819308 0 0 0 1524.187934 365.034412a378.832352 378.832352 0 0 0-117.245225-45.986183 674.81141 674.81141 0 0 0-125.191847-14.981334 371.797638 371.797638 0 0 0-65.136236 3.387084 151.116069 151.116069 0 0 0-65.136237 23.318773 81.159751 81.159751 0 0 0-26.054495 29.702124 91.190731 91.190731 0 0 0-8.858528 37.518472 184.205277 184.205277 0 0 0 13.027248 67.481141 720.146231 720.146231 0 0 0 57.319888 113.727869c42.859644 71.519588 89.757734 139.782364 122.325852 211.432224a251.165328 251.165328 0 0 1 17.456511 52.890624 73.21313 73.21313 0 0 1-2.214632 43.641278 41.426646 41.426646 0 0 1-11.724522 14.460245l-9.509891 7.555803-10.55207 6.383351a175.086204 175.086204 0 0 1-48.98245 16.544604 361.37584 361.37584 0 0 1-112.815962-1.823814c-10.161253-1.432997-20.452778-3.256812-30.614031-5.341172a182.381462 182.381462 0 0 0 16.674877-67.871958 295.588241 295.588241 0 0 0-31.135121-147.46844A385.08543 385.08543 0 0 0 725.226857 495.306885c-172.350482 6.253079-316.692382 99.007079-316.692382 99.00708C125.061574 748.165755 47.679725 854.858911 26.054495 900.454276a52.108989 52.108989 0 0 0 2.865994 50.806265c33.610298 52.108989 124.540484 55.886891 124.540484 55.886891h768.607591a219.378845 219.378845 0 0 0 124.670757-23.70959 729.525849 729.525849 0 0 0 75.688307 13.027247 426.381804 426.381804 0 0 0 133.399012-3.256812 237.356446 237.356446 0 0 0 66.699506-26.054494l15.502424-10.161253 14.1997-12.245613a99.007079 99.007079 0 0 0 24.882042-34.78275 127.667024 127.667024 0 0 0 3.64763-78.163484 306.270584 306.270584 0 0 0-23.449046-62.921604c-39.081742-78.163484-88.324737-143.29972-132.22656-212.604676a691.356014 691.356014 0 0 1-57.840978-104.217979 150.073889 150.073889 0 0 1-13.027247-52.108989 45.855911 45.855911 0 0 1 17.977601-39.081742 117.245226 117.245226 0 0 1 49.633812-19.150053 348.609138 348.609138 0 0 1 58.883158-5.210899 689.01111 689.01111 0 0 1 120.371765 9.119073 356.686031 356.686031 0 0 1 113.206779 37.518472 198.144431 198.144431 0 0 1 81.811113 83.7652 239.961895 239.961895 0 0 1 22.276593 117.245226 380.395621 380.395621 0 0 1-25.272859 119.850675 383.131343 383.131343 0 0 0 32.828663-119.329585 243.739797 243.739797 0 0 0-17.065694-125.322119z" fill="#cc0000" p-id="5061"></path><path d="M139.782364 857.334088m-17.065694 0a17.065694 17.065694 0 1 0 34.131388 0 17.065694 17.065694 0 1 0-34.131388 0Z" fill="#cc0000" p-id="5062"></path><path d="M267.970477 757.675646a26.054495 26.054495 0 0 1-42.989916 5.992534c-52.108989-56.668526-148.771164-188.895086 9.770435-240.482985 164.534133-53.932804 74.385582 152.418793 33.219481 234.490451z" fill="#cc0000" p-id="5063"></path><path d="M21.234413 928.853676m-21.234413 0a21.234413 21.234413 0 1 0 42.468826 0 21.234413 21.234413 0 1 0-42.468826 0Z" fill="#cc0000" p-id="5064"></path></svg>