<?xml version="1.0" standalone="no"?><!DOCTYPE svg PUBLIC "-//W3C//DTD SVG 1.1//EN" "http://www.w3.org/Graphics/SVG/1.1/DTD/svg11.dtd"><svg t="1539861919005" class="icon" style="" viewBox="0 0 1024 1024" version="1.1" xmlns="http://www.w3.org/2000/svg" p-id="1474" xmlns:xlink="http://www.w3.org/1999/xlink" width="20" height="20"><defs><style type="text/css"></style></defs><path d="M512 832c16 0 32-1.6 48-3.2-8-9.6-14.4-19.2-20.8-28.8H512c-73.6 0-139.2-27.2-190.4-72 11.2-80 92.8-142.4 192-142.4v-16c-102.4 0-188.8 62.4-206.4 145.6C256 662.4 224 590.4 224 512c0-158.4 129.6-288 288-288s288 129.6 288 288c0 8 0 16-1.6 24 11.2 6.4 20.8 12.8 30.4 20.8 1.6-14.4 3.2-28.8 3.2-44.8 0-176-144-320-320-320s-320 144-320 320 144 320 320 320z" fill="#707070" p-id="1475"></path><path d="M515.2 312c-60.8 0-110.4 49.6-110.4 110.4v3.2c0 60.8 49.6 110.4 110.4 110.4s110.4-49.6 110.4-110.4v-3.2c0-60.8-49.6-110.4-110.4-110.4z m94.4 113.6c0 52.8-41.6 94.4-94.4 94.4s-94.4-43.2-94.4-94.4v-3.2c0-52.8 41.6-94.4 94.4-94.4s94.4 43.2 94.4 94.4v3.2zM654.4 856H752v-52.8c4.8-3.2 9.6-4.8 14.4-8l46.4 27.2 48-83.2-44.8-28.8v-8-8l46.4-27.2-48-83.2-46.4 27.2c-4.8-3.2-9.6-6.4-14.4-8v-52.8H656v52.8c-4.8 3.2-9.6 4.8-14.4 8l-46.4-27.2-48 83.2 46.4 27.2v16l-46.4 27.2 48 83.2 46.4-27.2c4.8 3.2 9.6 6.4 14.4 8v54.4z m22.4-78.4c-9.6-3.2-17.6-8-25.6-14.4l-8-8-36.8 22.4-16-28.8 36.8-22.4-3.2-9.6c-1.6-4.8-1.6-9.6-1.6-14.4s0-9.6 1.6-14.4l1.6-11.2-36.8-22.4 16-28.8 36.8 22.4 8-8c8-6.4 16-11.2 25.6-14.4l11.2-3.2v-43.2H720v43.2l11.2 3.2c9.6 3.2 17.6 8 25.6 14.4l8 8 36.8-22.4 16 28.8-36.8 22.4 1.6 11.2c1.6 4.8 1.6 9.6 1.6 14.4s0 9.6-1.6 14.4l-1.6 11.2 36.8 22.4-16 28.8-36.8-22.4-8 8c-8 6.4-16 11.2-25.6 14.4l-11.2 1.6v43.2h-33.6v-43.2l-9.6-3.2z" fill="#707070" p-id="1476"></path><path d="M750.4 702.4c0-25.6-20.8-46.4-46.4-46.4s-46.4 20.8-46.4 46.4 20.8 46.4 46.4 46.4 46.4-20.8 46.4-46.4z m-16 0c0 16-12.8 30.4-30.4 30.4-16 0-30.4-12.8-30.4-30.4S686.4 672 704 672c16 0 30.4 12.8 30.4 30.4z" fill="#707070" p-id="1477"></path></svg>