<?xml version="1.0" standalone="no"?><!DOCTYPE svg PUBLIC "-//W3C//DTD SVG 1.1//EN" "http://www.w3.org/Graphics/SVG/1.1/DTD/svg11.dtd"><svg t="1536232601678" class="icon" style="" viewBox="0 0 1024 1024" version="1.1" xmlns="http://www.w3.org/2000/svg" p-id="1929" xmlns:xlink="http://www.w3.org/1999/xlink" width="20" height="20"><defs><style type="text/css"></style></defs><path d="M512 494.653937c-93.187379 0-169.010275-75.79322-169.010275-168.951947s75.821873-168.951947 169.010275-168.951947 169.010275 75.79322 169.010275 168.951947S605.187379 494.653937 512 494.653937zM512 196.22101c-71.427796 0-129.538285 58.080813-129.538285 129.479957s58.109466 129.479957 129.538285 129.479957 129.538285-58.080813 129.538285-129.479957S583.427796 196.22101 512 196.22101z" p-id="1930" fill="#2c2c2c"></path><path d="M512 867.25098c-141.005454 0-283.293111-39.848567-283.293111-128.862903 0-156.164712 127.080304-283.20613 283.293111-283.20613S795.293111 582.223365 795.293111 738.387054C795.293111 827.402413 653.005454 867.25098 512 867.25098zM512 494.653937c-134.442992 0-243.821121 109.339244-243.821121 243.73414 0 50.130747 107.10332 89.390913 243.821121 89.390913s243.821121-39.260166 243.821121-89.390913C755.820098 603.993181 646.442992 494.653937 512 494.653937z" p-id="1931" fill="#2c2c2c"></path></svg>