<?xml version="1.0" standalone="no"?><!DOCTYPE svg PUBLIC "-//W3C//DTD SVG 1.1//EN" "http://www.w3.org/Graphics/SVG/1.1/DTD/svg11.dtd"><svg t="1539772858767" class="icon" style="" viewBox="0 0 1024 1024" version="1.1" xmlns="http://www.w3.org/2000/svg" p-id="2182" xmlns:xlink="http://www.w3.org/1999/xlink" width="20" height="20"><defs><style type="text/css"></style></defs><path d="M678.115556 361.81333300000006c11.377778 0 22.755556 0 34.133333 2.275556C682.666667 227.55555600000002 534.755556 125.15555599999999 366.364444 125.15555599999999c-188.871111 0-341.333333 127.43111099999999-341.333333 291.271111 0 93.297778 52.337778 170.666667 136.533333 229.831111l-34.133333 102.4 120.60444500000001-59.164445c43.235556 9.102222 77.368889 18.204444 120.604444 18.204445 11.377778 0 20.48 0 31.857778-2.275556-6.826667-22.755556-11.377778-47.786667-11.377778-72.817778 0-147.911111 127.43111099999999-270.791111 288.99555599999997-270.791111z m-182.044445-91.022222c25.031111 0 43.235556 15.928889 43.235556 43.235556 0 25.031111-15.928889 43.235556-43.235556 43.235555-25.031111 0-52.337778-18.204444-52.337778-43.235555 0-27.306666999999997 25.031111-43.235556 52.337778-43.235556z m-241.208889 84.195556c-25.031111 0-52.337778-18.204444-52.337778-43.235556 0-25.031111 25.031111-43.235556 52.337778-43.235555 25.031111 0 43.235556 15.928889 43.235556 43.235555s-15.928889 43.235556-43.235556 43.235556z m0 0" fill="#8a8a8a" p-id="2183"></path><path d="M992.1422220000001 630.328889c0-136.533333-136.533333-248.03555600000004-291.271111-248.03555600000004-163.84 0-291.271111 111.502222-291.271111 248.03555600000004s127.43111099999999 248.03555600000004 291.271111 248.035555c34.133333 0 68.266667-9.102222 102.4-18.204444l93.297778 52.337778-25.031111-86.471111c68.266667-50.062222 120.604444-120.604444 120.604444-195.697778z m-386.844444-43.235556c-15.928889 0-34.133333-15.928889-34.133334-34.133333 0-15.928889 18.204444-34.133333 34.133334-34.133333 25.031111 0 43.235556 18.204444 43.235555 34.133333s-15.928889 34.133333-43.235555 34.133333z m188.871111 0c-15.928889 0-34.133333-15.928889-34.133333-34.133333 0-15.928889 18.204444-34.133333 34.133333-34.133333 25.031111 0 43.235556 18.204444 43.235555 34.133333s-18.204444 34.133333-43.235555 34.133333z m0 0" fill="#8a8a8a" p-id="2184"></path></svg>