<?xml version="1.0" standalone="no"?><!DOCTYPE svg PUBLIC "-//W3C//DTD SVG 1.1//EN" "http://www.w3.org/Graphics/SVG/1.1/DTD/svg11.dtd"><svg t="1537875213021" class="icon" style="" viewBox="0 0 1024 1024" version="1.1" xmlns="http://www.w3.org/2000/svg" p-id="1961" xmlns:xlink="http://www.w3.org/1999/xlink" width="20" height="20"><defs><style type="text/css"></style></defs><path d="M976.727824 95.41232c13.1856416-13.1867328 13.1856416-34.73892587 0-47.95622187l-1.48884267-1.4528224c-13.18127573-13.2183872-34.7334688-13.2183872-47.9202016-0.03711146L535.76417173 437.48802773c-13.18127573 13.18127573-34.74001707 13.18127573-47.9212928 0L96.18675733 45.96616427c-13.18127573-13.18127573-34.7334688-13.18127573-47.9202016 0l-1.48993386 1.52595413c-13.18018347 13.18127573-13.18018347 34.7334688 0 47.91910933l391.62119253 391.4858432c13.1867328 13.18127573 13.1867328 34.7356512 0 47.922384L46.77662293 926.3707904c-13.18018347 13.18127573-13.18018347 34.73456 0 47.9202016l1.48993387 1.52486293c13.1867328 13.18127573 34.73892587 13.18127573 47.9202016 0l391.6561216-391.55897493c13.18127573-13.18018347 34.74001707-13.18018347 47.9212928 0l391.55351787 391.55897493c13.1867328 13.18127573 34.73892587 13.18127573 47.9202016-0.03602026l1.48884266-1.4550048c13.1856416-13.2194784 13.15071253-34.77276373 0-47.95513067L585.21032747 534.8205472c-13.1867328-13.187824-13.1867328-34.74220053 0-47.922384L976.727824 95.41232 976.727824 95.41232zM976.727824 95.41232" p-id="1962" fill="#8a8a8a"></path></svg>